<?xml version="1.0" encoding="UTF-8"?>
<svg id="Layer_1" data-name="Layer 1" xmlns="http://www.w3.org/2000/svg" viewBox="0 0 558.95 558.67">
  <defs>
    <style>
      .cls-1 {
        fill: #0f8f45;
      }

      .cls-1, .cls-2, .cls-3, .cls-4, .cls-5, .cls-6, .cls-7 {
        fill-rule: evenodd;
        stroke-width: 0px;
      }

      .cls-2 {
        fill: #0e8e44;
      }

      .cls-3 {
        fill: #0e8c45;
      }

      .cls-4 {
        fill: #fbfdfd;
      }

      .cls-5 {
        fill: #fdfdfd;
      }

      .cls-6 {
        fill: #fefefe;
      }

      .cls-7 {
        fill: #f8fdf9;
      }
    </style>
  </defs>
  <path class="cls-3" d="M369.91,203.4c-4.43-5.21-9.35-10.59-10.26-20.94,31.8,9.11,40.98,3.3,70.97,1.35-3.75,9.42-8.6,18.46-18.97,19.67-10.02,1.18-30.94.26-41.73-.08h0ZM248.85,455.63c20.46-6.99,39.3-15.29,60.74.36l-3.28,3.12c-5.56,4.39-22.55,15-27.58,14.81-3.59-.14-25.25-11.48-29.89-18.29h0ZM209.55,421.17c33.67.83,46.83-10.73,72.56-12.23,28.62-1.67,29.57,12.45,73.5,9.43-4.42,6.52-28.9,27.33-37.59,32.53-10.12-3.62-14.66-9.22-29.78-10.91-42.74-4.78-36.94,22.87-58.89,1.27-7-6.88-15.15-11.62-19.81-20.08h0ZM176.31,380.47c17.82-17.95,39.62-4.77,49.18-1.05,27.07,10.54,30.27-5.12,51.81-8.43,25.43-3.91,33.73,6.91,53.09,11.84,23.89,6.09,39.26-2.69,59.08-3.57-5.04,6.49-10.93,13.89-15.93,20.61-19.6,26.31-64.46-.07-91.71,1.34-22.1,1.14-39.14,12.68-63.98,12.5-16.91-.12-18.19-1.91-26.23-11.88-5.46-6.78-10.48-13.33-15.31-21.35h0ZM155.8,347.64c24.21-25.67,49.96-7.32,61.32-4.1,35.36,10.02,40.77-7.6,65.67-11.23,23.53-3.43,33.64,17.1,67.96,11.87,22.28-3.4,40.29-20.55,60.39,1.82-3.13,7.27-9.61,19.92-17.52,23.06-49.12,19.49-77.64-3.39-97.46-5.81-42-5.13-39.66,18.56-64.55,10.14-10.67-3.61-17.66-9.83-30.12-10.12-14.93-.34-20.6,6.33-31.29,9.57l-14.4-25.2h0ZM137.73,313.24c36.48-24.98,38.38-14.14,70.51-6.72,39.85,9.21,45.82-12.5,75.32-13.21,26.42-.63,39.55,21.87,76.88,12.9,8.05-1.93,47.53-22.31,72.74-2.66l-16.57,34.53c-11.04-4.52-15.69-11.62-32.97-10.96-13.55.52-20.66,7.29-33.95,9.35-33.44,5.18-40.53-16.21-69.24-11.7-26.34,4.14-33.05,23.38-68.27,8.85-31.07-12.82-36.72-8.34-61.41,6.91l-13.05-27.28h0ZM298.49,474.04c6.63-6.3,22.8-15.33,30.78-21.58,19.88-15.55,24.23-21.54,41.41-37.38,4.54-4.18,7.24-8.72,12.1-14.18,21.84-24.54,45.73-66.79,59.19-98.42,11.29-26.52,23.1-73.15,25.15-77.59,10.48,23.64,9.65,69.89,3.7,96.68-11.83,53.32-44.65,98.7-90.53,126.06-18.8,11.21-55.22,26.81-81.8,26.39h0ZM259.13,474.09c-57.44-2.75-106.71-38.41-138.54-80.05-14.8-19.36-27.5-48.13-33.2-76.62-5.2-26.02-6.92-73.93,5.71-94.9,5.34,9.44,9.45,27.72,13.73,39.16,21.19,56.7,45.79,105.33,83.93,150.8,2.38,2.83,3.28,4.76,5.7,7.5l62.66,54.11h0ZM134.15,305.53c-9.21-11.43-31.46-75.59-35.17-94.4,14.45.13,28.93.05,43.38.05,49.4,0,29.85,2.82,37.76,4.08,10.3-.92,5.57-3.12,14.75-4.08h124.8c47.15,0,94.31.08,141.47-.01-3.21,29.06-15.44,58.98-24.41,83.93-18.07-4.7-28.13-10.55-50.89-6.07-19.89,3.92-20.66,11.81-45.59,11.01,4.72-2.41.15-.66,5.59-1.78,14.5-2.98,9.6,1.26,11.36-4.81-3.4-1.68-9.83-.89-14.64-.15-4.44.68-3.52.31-6.41,1.96-15.79,9.01,5.9,3.09-4.98,3.7-18.05-4.09-26.9-13.26-46-13.35-28.67-.14-39.21,17.62-46.02,11.78-.23-.2-.62-.59-.89-.8l-8.38-3.81c-5.36-1.17-10.82-1.79-14.17.68,5.18,6.72,9.31.85,18.14,7.09-46.36,1.77-54.1-27.39-99.68,4.98h0ZM169.62,182.54l20.11,12.41c-3.88,10.73-10.19,8.6-20.1,8.59v-21.01h-.01ZM169.88,150.64c7.83.05,14.74-.97,14.04,8.1-.62,8.15-7.98,7.09-14.35,7.15l.31-15.26h0ZM422.37,149.04c6.51,1.91,7.27,4.17,12.44,11.24,1.49,2.04,3.08,4.24,4.7,6.57-8.41-5.26-11.33-4.16-22.65-8.01,2.05-7.23,4.42-3.86,5.52-9.8h0ZM440.56,168.37c7.53,10.89,15.64,24.07,19.05,35.22-8.76-.03-25.03,2.44-31.24-1.71,7.17-6.88,13.82-20.23,12.2-33.51h0ZM245.1,203.28l-48.72.18c4.85-9.77,8.12-2.03,18.35-1.85,8.28.14,11.41-4.69,11.31-12.64l-18.49-.18c2.11-4.42.04-.67,2.73-4.68,5.12-7.62,6-4.65,7.52-12.13-2.45-2.88-2.28-3.01-4.84-5.56-4.05,2.92-13.85,17.28-15.66,20.87-8.1-1-17.66-2.39-23-7.66,10.83-.13,18.43-.46,23.89-7.61,4.47-5.85,5.62-17,1.95-24.97-6.22-13.52-32.51-11.47-49.26-9.77v66.28l-51.3-.11c9.87-30.68,33.83-54.59,50.98-70.92,19.35-18.43,47-33.12,78.83-42.24l2.08,2.89c1.32,2-.19.23,1.77,3-.47,11.45,11.2,21.4,19.26,26.41,5.16,3.21,9.38,5.56,14.99,8.02,12.15,5.34,18.87,1.08,20.16,8.89l.31,15.74c-40.81,10.01-19.33,25.25-17.29,34.84-8.76,2.64-21.53,4.31-25.54,13.19h0ZM232.65,81.88c-45.77,7.79-86.56,40.94-107.46,64.69-24.16,27.46-45.62,70.36-48.86,120.56-6.66,103.17,61.46,178.52,135.68,204.58,170.6,59.9,330.19-116.92,250.43-281.6-6.17-12.73-22.72-40.87-35.43-48.95-4.77-13.71-48.24-41.09-69.56-49.64-15.85-6.36-7.92-11.35-22.96-18.13-18.47-8.33-55.77-70.24-86.11-36.75-3.32,3.67.88,1.59-5.69,4.17l-5.23,1.57c-.44.16-.91.37-1.3.52l-2.58,1.21c29.83-1.27,9.61,10.66,43.46,6.14,15.71-2.1,27.41,9.71,23.96,24.19-29.05,3.27-38.46-5.47-68.34,7.45h0ZM407.9,166.54c9.33-.04,17.89,2.45,24.76,5.48-6.32,6.73-22.44,7.61-34.01,7.73l9.24-13.21h0ZM359.62,173.16c6.78-6.24,22.24-7.57,33.74-7.36-1.51,3.41-8.77,11.12-11.3,13.13-8.79-.45-15.56-1.72-22.44-5.77h0ZM398.47,157.88c-56.82.12-52.33,14.21-39.13,45.62-36.82.34-21.65.66-39.81-10.07-8.1-4.79-12.43-4.82-22.05-7.44l-.47-25.4c49.01-13.29,27.3-32.86,40.79-45.99,7.34-7.15,6.76-5.49,11.09-13.69l1.96-3.62c13.19,5.17,25.24,11.45,35.4,17.96,8.8,5.64,24.49,17.74,28.95,23.88-3.85,5.84-10.7,16.26-16.75,18.74h0ZM250.79,89.89c1.66-1.88.21-1.13,3.68-2.87,1.28-.64,2.26-.89,3.63-1.23,10.3-2.6,53.22-4.3,59.27,4.1-9.34,8.38-57.26,8.33-66.58,0h0ZM260.14,8.49c155.39-10.63,280.5,107.94,290.44,251.05,10.83,155.88-107.44,280.82-250.59,291.15-156.34,11.28-281.87-107.92-291.71-251.22C-2.43,143.34,116.13,18.34,260.14,8.49h0ZM204.76,9.67c-6.15,3.55-28.53,9.79-38.22,14.07-32.73,14.44-71.19,40.61-92.12,65.49-8.04,9.56-15.6,18.04-23.5,29.04C-9.18,201.85-15.88,315.46,29.77,406.08c23.44,46.52,56.93,81.74,100.24,109.89,100.33,65.21,234.95,52.13,320.24-14.78,35.39-27.77,69.36-66.16,90.35-121.42,10.11-26.61,16.77-55.83,18.08-86.57,2.27-53.45-10.37-80.53-10.04-94.16-2.65-2.59-16.84-40.64-20.76-48.15-8.31-15.94-17.7-30.08-27-41.92-10.94-13.93-20.45-25.69-32.98-35.98-42.26-34.71-74.02-56.57-138.27-68.45-49.05-9.07-78.62-3.09-124.88,5.13h0ZM321.75,270.08c6.98-.72,15.67-11.53,17.22-15.62-4.92-2.39-4.93.22-9.66,4.28-5.1,4.38-8.77,4.47-7.55,11.34h0ZM329.98,281.91c2.62,1.71-1.09,4.3,16.45-4.38,7.2-3.56,3.52.49,4.31-5.42-4.43-1.99-18.92,5.01-20.76,9.79h0ZM311.98,260.93c1.38-3.36,2.75-6.43,4.72-9.86.69-1.2,2.97-4.5,3.25-5.2,3.65-9.02.87-3.16-.36-5.3-3.76-.79-5.15,4.13-7.8,8.9-4.56,8.23-6.78,8.34.19,11.46h0ZM333.57,290.18c2.24.99,20.48-1.28,21.39-6.9-2.35-1.25,3.49-3.87-12.03.49-13.45,3.78-8.88,1.71-9.35,6.41h0ZM253.53,240.26c-.07.34-.23.53-.22,1.01l.76,4.29c3.63,9.4,5.78,14.77,10.38,14.24.09-.38.27-1.37.26-1.15l-.72-4.55c-3.98-10.4-5.87-14.8-10.47-13.84h0ZM278.63,255.24c3.22-3.59,1.76-12.87.4-17.76-2.12-7.62.54-2.83-3.68-4.53-1.5,2.17-1.36-1.52-1.56,4.62-.18,5.76,1.03,15.65,4.84,17.68h0ZM221.8,272.46c1.54,2.26,14.92,12.53,20.76,9.51-1.27-5.21,2.5-1.11-3.4-4.83-.02-.01-5.02-2.23-5.68-2.57-1.35-.7-4.35-2.68-5.39-3.08-6.4-2.46-3.74-2.78-6.28.97h0ZM316.29,264.28c3.43.64,6.71-5.12,11.87-11.76,1.69-2.17,2.65-1.87,1.68-5.29-3.56-1.73-4.35-.47-9.2,6.11-1.09,1.48-2.97,3.87-3.65,4.83-4,5.71-1.54,4.65-.7,6.1h0ZM242.94,247.31c2.06,3.81,9.37,16.26,13.76,17.55,3.36-4.48.85-4.92-3.13-10.34-3.65-4.96-3.39-6.95-7.77-9.51l-2.85,2.3h0ZM235.56,253.81c-.63,2.63-2.97.83,5.9,9.52,2.81,2.75,6.18,6.58,9.59,5.94.14-.33.42-1.22.4-.99,0,.02,3.86,1.93-6.07-8.86-5.1-5.54-5.82-7.64-9.82-5.6h0ZM218.29,281.97c1.4,4.59-3.08.99,3.61,4.21.72.35,4.95,1.51,6.29,1.94,4.94,1.58,7.39,3.43,11.03,2.06-.5-5.17,1.78-2.98-9.45-6.96-5.15-1.83-7.27-3.82-11.47-1.25h0ZM293.06,255.27c3.73-.96,3.48,1.96,5.47-9.18.17-.93,1.39-6.51,1.42-6.99.54-7.68.3-3.72-1.62-6.1-6.02,2.95-5.93,20.37-5.27,22.27h0ZM228.65,261.55c-.07.36-.24.57-.2,1.07.32,4.85,15.58,15.1,17.66,13,3.58-3.62-12.93-14.74-17.46-14.06h0ZM270.42,257.26c2.39-2.75,2.22,3.47,1.98-4.76l-3.65-13.18c-2.15-4.51-.5-2.68-4.89-3.52-1.5,3.72,2.41,18.33,6.57,21.46h0ZM301.61,257.01c6-1.7,10.03-17.36,8.21-21.01-5.02,1.06-1.91-4.11-6.61,9.84-1.67,4.96-3.85,7.16-1.59,11.17h0ZM286.83,254.69c3-4.12,4.59-17.22,0-22.67-3.33,3.07-3.42,11.66-2.9,17.23.76,8.12-1.24,2.49,2.9,5.44h0ZM326.44,275.4c4.24,1.94,4.9-.44,9.4-3.48,2.26-1.53,2.79-1.7,5.02-3.22l2.97-7.43c-5.06,2.32-16.71,7.85-17.39,14.13h0Z"/>
  <path class="cls-3" d="M282.75,533.88c4.83-2.16,2.67.05,3.88-5.53l-.35-22c4.96,3.13,7.6,9.68,11.38,15.21,8.64,12.67,5.48,11.84,15.31,12.08-.04-7.83-.17-15.67-.22-23.47-.16-24.82,1.37-16.38-3.73-18.44-3.53,1.68-3.79.52-3.41,13.48.15,5.13.53,9.12-.3,14.13-12.67-13.86-13.25-27.49-26.03-27.2l.18,34.64c1.12,10.46-1.34,4.42,3.29,7.11h0Z"/>
  <path class="cls-3" d="M210.86,493.68c18.05-10.75,26.02,20.69,11.46,26.76-12.42,5.18-20.15-6.99-17.36-19.18,1.55-6.77,2.38-5.48,5.9-7.58h0ZM197.61,511.81c4.77,25.33,43.43,20.54,39.16-9.71-3.73-26.46-45.13-22.01-39.16,9.71h0Z"/>
  <path class="cls-3" d="M244.99,491.37c-5.07,2.68-3.77,9.29-3.94,18.81-.68,37.67,27.81,21.5,30.21,18.03,3.17-4.6,3.87-21.34,3.73-28.17-.15-7.17,1.42-5.78-2.67-7.52-15.32-6.55,10.36,42.61-22.81,33.03-1.24-5.39-1.42-12.13-1.06-18.67.07-1.27.44-9.3.32-9.97-1.11-5.73,1.19-3.32-3.78-5.54h0Z"/>
  <path class="cls-3" d="M185.16,501.09c-33.49,19.37-21.27-34.99-.39-22.86,9.03,5.24-.49,11.77,10.97,13.27,8.93-17.28-23.79-32.63-35.39-10.2-11.86,22.94,7.78,38.42,29.32,26.2-2.39-5.3-.75-2.35-4.51-6.41h0Z"/>
  <path class="cls-3" d="M354.4,509.26c-14.46-.77-1.51,9.48-15.95,11.12-16.3,1.85-19.99-27.73-4.47-29.7,15.6-1.98,3.5,8.62,17.83,4.69-4.84-19.83-39.96-13.65-34.31,14.47,5.27,26.21,38.77,20.42,36.91-.58h0Z"/>
  <path class="cls-6" d="M210.86,493.68c-3.52,2.1-4.34.81-5.9,7.58-2.8,12.19,4.93,24.36,17.36,19.18,14.56-6.07,6.59-37.51-11.46-26.76h0Z"/>
  <path class="cls-3" d="M393.01,507.14c7.23-3.21,9.39-2,9.15-8.46-5.21-3.38-13.57,3.53-19.7,5.21l-12.43-28.68c-1.98-2.45,1.24-2.49-3.45-2.04-6.03.58-2.85,2.26-2.97,2.7-.9,3.2,13.33,32.97,16,36.6,5.45-1.43,8.69-3.24,13.4-5.33h0Z"/>
  <path class="cls-1" d="M353.85,479.42c-4.75,1.99-3-1.08-2.28,4.49.17,1.29,8.27,18.51,9.69,21.62,6.27,13.78,4.01,14.98,9.52,12.38,5.28-2.5,1.59-3.63-7.6-25.79-4.64-11.2-4.76-14.61-9.34-12.69h0Z"/>
  <path class="cls-3" d="M488.55,221.23c1.18.95.16,2.44,8.1,1.53.37-.04,6.3-1.45,6.99-1.61,5.04-1.14,9.38-2.16,14.46-2.58-5.68,3.1-22.44,10.31-27.12,14.2l2.06,7.22,29.82,1.72c-13.03,3.78-25.07,3.6-28.22,9.07,1.96,6.3.62,5.32,9,3.6l32.56-6.93c-2.9-18,.66-10.37-30.07-14.05,7.15-3.8,15.36-9.55,24.62-12.13l-2.48-12.94c-7.02.97-14.82,2.86-21.81,4.29-23.47,4.81-17.79.85-17.91,8.61h0Z"/>
  <path class="cls-2" d="M100.09,129.29c2.68-5.18,5.61-9.77,12.79-10.82,3.28,2.74,1.53.91,4.17,4.25-1.33,6.41-4.17,10.49-11.25,13.4-1.78-2.3-3.43-4.62-5.72-6.84h0ZM87.74,117.8c2.47-4.25,5.61-9.91,12.96-9.12,4.02,6.74-2.48,11.13-5.77,15.44-8.55-3.71-5.93-4.03-7.18-6.32h0ZM77.05,119.44l29.24,27.54c16.43-9.81,31.04-39.72,2.77-35.13-.7-10.4-7.92-15.11-16.6-9.61-5.43,3.44-12.1,13.14-15.42,17.2h0Z"/>
  <path class="cls-2" d="M505.25,171.08c2.52,2.62,4.51,6.5,5.41,10.33,1.56,6.66-1.5,6.79-7.94,7.17l-6.14-13.93,8.68-3.57h0ZM471.35,177.03l2.33,6.92c3.98-1.09,29.61-15.06,12.92,10.5-5.07,7.76-4,6.78-1.37,15.59,2.35-1.74.85-.09,3.78-3.37l7.83-15.07c3.15,2.28,6.17,6,12.88,4.71,17.16-3.3,4.22-27.66-1.18-35.64-7.91,2.11-30.62,12.41-37.18,16.35h0Z"/>
  <path class="cls-2" d="M34.79,220.23c-8.01-.88-5.87-1.73-7.46,4.28,1.42,1.09-2.56,2.43,11.98,4.59,1.92.28,5.35.74,7.11,1.19,5.88,1.48,2.13-.12,6.12,2.46-5.94,1.62-12.08,4.58-18.14,6.83-7.41,2.76-10.52,2.1-11.3,11.19,5.29,3.36,14.63,3.63,21.11,4.72,11.21,1.89,18.49,5.56,19.92.2,2.22-8.28-11.83-5.29-21.4-8.92l-2.45-1.25c5.23-1.83,10.86-4.29,16.58-6.47,8.89-3.39,10.42-1.75,12.01-11.27-1.9-1.34.19-.39-3.59-1.82l-30.47-5.74h0Z"/>
  <path class="cls-2" d="M417.43,113.65c9.48,3.61,9.5-4.85,17.38-10.24,3.78,2.79,6.6,6.28,10.46,11.11-3.78,6.09-4.91,6.74-11.14,10.77,2.28,5.53,1.26,3.69,5.44,7l14.92-14.33c4.38-4.34,11.04-10.63,12.97-16.55l-4.9-3.45c-5.67,2.34-1.92.35-6.42,5.11-4.03,4.26-1.37,3.16-7.31,5.38-2.89-3.74-7.03-7.51-9.43-12.39,2.25-1.74,2.75-2.27,5.03-4.56,4.45-4.47,2.93-1.64,5.26-7.06l-3.46-2.87c-6.5,1.06-13.49,9.8-17.24,14.11-8.63,9.93-13.17,11.75-11.56,17.95h0Z"/>
  <path class="cls-2" d="M472.42,148.1c-3.14-3.3-3.24-3.1-5.35-7.32l13.61-4.9-8.26,12.22h0ZM444.78,137.32c3.98,9.84,4.62,6.74,15,4.86l8.4,13.27c-5.08,8.98-5.36,6.55-1.26,15.24.38-.26.92-1.14,1.08-.84l3.64-3.6c.57-.73,2.11-3.33,3.15-5.04,15.24-24.91,18.96-22.04,13.89-33.68-8.57-.5-34.72,7.08-43.91,9.78h0Z"/>
  <path class="cls-2" d="M63.89,288.51c1.59-22.29-17.16-20.71-42.51-17.7l.26,7.29c18.18,2.83,38.87-8.68,33.96,14.16-11.53,4.31-26.64.42-33.52,4.49.36,8.74-.42,7.05,10.18,6.67,18.93-.69,30.49,1.29,31.64-14.9h0Z"/>
  <path class="cls-2" d="M77.22,166.23c-6.17-3.57-7.9-5.78-10.25-11.66l13.94,3.11-3.69,8.55h0ZM83.66,187.38c4.92-14.3-.18-5.04-2.09-14.32-.57-2.78,4.99-10.35,6.61-14.36,13.89.99,7.58,3.41,14.78-4.42-2.19-2.34-.13-1.25-4.08-2.68l-21.53-3.39c-32.52-5.1-22.99,4.05-8.77,22.08,3.77,4.78,9.3,13.93,15.08,17.08h0Z"/>
  <path class="cls-2" d="M512.29,286.74l.02-9.63,13.42,4.14c-2.19,3.45-9.67,5.09-13.44,5.5h0ZM495.85,302.63l41.52-16.43.19-8.19-41.39-16.23c.04,10.62-.54,8.76,9.26,11.37l-.07,17.34c-10.1,2.48-9.57,1.4-9.51,12.14h0Z"/>
  <path class="cls-2" d="M401.98,73.47c1.59-5.16,2.73-6.32,6.63-9.44,18.71,13.95,4.21,18.93-6.63,9.44h0ZM382.48,88.48l6.15,3.57,8.23-12c1.17.42,25.05,16.89,29.13-3.88,1.65-8.37-3.34-11.12-7.91-14.06-4.79-3.08-9.06-6.47-14.86-8.53-5.02,11.09-17.05,24.74-20.74,34.9h0Z"/>
  <path class="cls-2" d="M36.23,340.64c-2.01-8.79-4.67-14.65,5.6-15.24,4.06,3.17,5.3,6.06,5.02,13.44l-10.62,1.79h0ZM55.42,336.32c-4.41-8.19-4.16-25.65-21.6-18.57-12.42,5.04-4.45,21.81-3.07,33.08l40.74-9.38c-1.74-12.29-3.56-6.5-16.07-5.12h0Z"/>
  <path class="cls-2" d="M500.99,344.92c5.46-17.05-3.96-2.83-3.39-16.78.31-7.6,7.1-9.56,15.51-8.19,7.59,1.24,13.67,3.83,12.26,12.73-2.01,12.64-9.92.09-7.93,15.9,20.59-2.48,21.34-31.72-1.09-36.83-26.35-6-36.27,25.73-15.36,33.16h0Z"/>
  <path class="cls-2" d="M502.67,374.74c14.69-1.82,17.55,1.27,21.08-11.14-6.93.89-19.1,3.72-25.18,3.73-8.46,0-10.46-4.22-15.02-4.55-5.81-.41-11.72,4.27,1.82,9.61,17.1,6.75,13.21,19.53,24.15,25.57,6.17-14.39-4.83-12.5-6.84-23.23h0Z"/>
  <path class="cls-3" d="M76.61,196.09c-7.73-6.95-23.9-13.61-35.6-15.67l-2.06,6.33c2.93,2.68,1.8,1.89,6.27,3.65,6.9,2.71,22.93,6.16,24.31,11.72,1.16,4.69-1.94,4.48-2.04,4.54-7.05,4.64-5.41-5.47-8.22,7.79,13.01,5.16,19.1-4.86,17.34-18.35h0Z"/>
  <path class="cls-5" d="M100.09,129.29c2.29,2.22,3.93,4.54,5.72,6.84,7.08-2.91,9.92-6.99,11.25-13.4-2.64-3.34-.89-1.51-4.17-4.25-7.19,1.05-10.12,5.64-12.79,10.82h0Z"/>
  <path class="cls-5" d="M496.58,174.65l6.14,13.93c6.44-.39,9.5-.51,7.94-7.17-.9-3.83-2.89-7.71-5.41-10.33l-8.68,3.57h0Z"/>
  <path class="cls-5" d="M36.23,340.64l10.62-1.79c.28-7.39-.96-10.28-5.02-13.44-10.28.59-7.62,6.45-5.6,15.24h0Z"/>
  <path class="cls-5" d="M401.98,73.47c10.84,9.5,25.34,4.52,6.63-9.44-3.9,3.11-5.04,4.28-6.63,9.44h0Z"/>
  <path class="cls-5" d="M87.74,117.8c1.25,2.29-1.37,2.61,7.18,6.32,3.29-4.31,9.8-8.7,5.77-15.44-7.35-.78-10.48,4.88-12.96,9.12h0Z"/>
  <path class="cls-4" d="M77.22,166.23l3.69-8.55-13.94-3.11c2.36,5.88,4.08,8.08,10.25,11.66h0Z"/>
  <path class="cls-7" d="M512.29,286.74c3.77-.41,11.25-2.05,13.44-5.5l-13.42-4.14-.02,9.63h0Z"/>
  <path class="cls-4" d="M480.68,135.88l-13.61,4.9c2.11,4.22,2.21,4.03,5.35,7.32l8.26-12.22h0Z"/>
</svg>